<svg width="20" height="20" viewBox="0 0 20 20" fill="none" xmlns="http://www.w3.org/2000/svg">
<path d="M18.3333 9.16657H3.67832L8.08915 4.75574C8.16874 4.67887 8.23223 4.58691 8.2759 4.48524C8.31958 4.38357 8.34257 4.27422 8.34353 4.16357C8.34449 4.05292 8.3234 3.94319 8.2815 3.84078C8.2396 3.73836 8.17772 3.64532 8.09948 3.56708C8.02124 3.48883 7.92819 3.42695 7.82578 3.38505C7.72337 3.34315 7.61363 3.32207 7.50298 3.32303C7.39233 3.32399 7.28298 3.34698 7.18131 3.39065C7.07964 3.43433 6.98769 3.49781 6.91082 3.57741L1.07748 9.41074C0.921259 9.56701 0.833496 9.77893 0.833496 9.9999C0.833496 10.2209 0.921259 10.4328 1.07748 10.5891L6.91082 16.4224C7.06799 16.5742 7.27849 16.6582 7.49699 16.6563C7.71548 16.6544 7.92449 16.5668 8.079 16.4123C8.23351 16.2577 8.32115 16.0487 8.32305 15.8302C8.32495 15.6117 8.24095 15.4012 8.08915 15.2441L3.67832 10.8332H18.3333C18.5543 10.8332 18.7663 10.7454 18.9226 10.5892C19.0789 10.4329 19.1667 10.2209 19.1667 9.9999C19.1667 9.77889 19.0789 9.56693 18.9226 9.41065C18.7663 9.25437 18.5543 9.16657 18.3333 9.16657Z" fill="white"/>
</svg>
