<svg width="92" height="92" viewBox="0 0 92 92" fill="none" xmlns="http://www.w3.org/2000/svg">
<g clip-path="url(#clip0_333_1202)">
<path d="M46 92C71.4051 92 92 71.4051 92 46C92 20.5949 71.4051 0 46 0C20.5949 0 0 20.5949 0 46C0 71.4051 20.5949 92 46 92Z" fill="#6AF0F8"/>
<path d="M91.9799 47.3171L70.4541 25.7913L57.0122 40.0212L37.8793 20.8881L30.615 45.1968H36.2164L44.4952 53.2721L50.0994 58.8764L15.5905 73.1317L32.4203 89.9616C36.7127 91.2859 41.2726 92 46 92C70.9646 92 91.2826 72.1129 91.9799 47.3171Z" fill="#2DCED7"/>
<path d="M71.5554 71.5555H43.6768V28.134C43.6768 26.4536 45.0391 25.0908 46.7199 25.0908H68.5128C70.1932 25.0908 71.556 26.4532 71.556 28.134V71.5555H71.5554Z" fill="#273B7A"/>
<path d="M71.5555 28.134C71.5555 26.4532 70.1931 25.0908 68.5123 25.0908H57.358V71.5555H71.5555V28.134Z" fill="#121149"/>
<path d="M47.394 30.6667H67.8385V35.7778H47.394V30.6667ZM47.394 37.4816H67.8385V42.5926H47.394V37.4816ZM47.394 51.1111H67.8385V56.2221H47.394V51.1111ZM47.394 44.2964H67.8385V49.4074H47.394V44.2964Z" fill="#C8EBED"/>
<path d="M57.3591 30.6667H67.8394V35.7778H57.3591V30.6667Z" fill="#71E2EF"/>
<path d="M47.394 37.4816H57.3592V42.5926H47.394V37.4816Z" fill="#C8EBED"/>
<path d="M57.3591 37.4816H67.8394V42.5926H57.3591V37.4816ZM57.3591 51.111H67.8394V56.2221H57.3591V51.111Z" fill="#71E2EF"/>
<path d="M47.394 51.111H57.3592V56.2221H47.394V51.111ZM47.394 44.2964H57.3592V49.4074H47.394V44.2964Z" fill="#C8EBED"/>
<path d="M57.3591 44.2964H67.8394V49.4074H57.3591V44.2964Z" fill="#71E2EF"/>
<path d="M39.0303 71.5555H20.4445V23.0505C20.4445 21.611 21.611 20.4445 23.0503 20.4445H36.4244C37.8635 20.4445 39.0304 21.611 39.0304 23.0505L39.0303 71.5555Z" fill="#273B7A"/>
<path d="M39.0303 23.0502C39.0303 21.611 37.8638 20.4443 36.4247 20.4443H29.6343V71.5554H39.0303V23.0502Z" fill="#121149"/>
<path d="M57.7673 71.5555H37.8792V37.3709C37.8792 36.1136 38.8985 35.0941 40.156 35.0941H55.4905C56.7478 35.0941 57.7673 36.1134 57.7673 37.3709V71.5555Z" fill="#FFC61B"/>
<path d="M57.7673 37.3709C57.7673 36.1136 56.748 35.0941 55.4905 35.0941H47.4456V71.5555H57.7675V37.3709H57.7673Z" fill="#EAA22F"/>
<path d="M40.7372 38.1784H45.8482V43.2894H40.7372V38.1784Z" fill="#FF5419"/>
<path d="M49.7977 38.1784H54.9088V43.2894H49.7977V38.1784Z" fill="#C92F00"/>
<path d="M40.7372 45.7676H45.8482V50.8787H40.7372V45.7676Z" fill="#FF5419"/>
<path d="M49.7977 45.7676H54.9088V50.8787H49.7977V45.7676Z" fill="#C92F00"/>
<path d="M40.7372 53.3569H45.8482V58.468H40.7372V53.3569Z" fill="#FF5419"/>
<path d="M49.7977 53.3569H54.9088V58.468H49.7977V53.3569Z" fill="#C92F00"/>
<path d="M22.6282 23.8891H28.2765V27.694H22.6282V23.8891Z" fill="#FEE187"/>
<path d="M31.1964 23.8891H36.8447V27.694H31.1964V23.8891Z" fill="#FFC61B"/>
<path d="M22.6282 29.5483H28.2765V33.3532H22.6282V29.5483Z" fill="#FEE187"/>
<path d="M31.1964 29.5483H36.8447V33.3532H31.1964V29.5483Z" fill="#FFC61B"/>
<path d="M22.6282 35.2078H28.2765V39.0126H22.6282V35.2078Z" fill="#FEE187"/>
<path d="M31.1964 35.2078H36.8447V39.0126H31.1964V35.2078Z" fill="#FFC61B"/>
<path d="M22.6282 40.8672H28.2765V44.6721H22.6282V40.8672Z" fill="#FEE187"/>
<path d="M31.1964 40.8672H36.8447V44.6721H31.1964V40.8672Z" fill="#FFC61B"/>
<path d="M22.6282 46.5297H28.2765V50.3346H22.6282V46.5297Z" fill="#FEE187"/>
<path d="M31.1964 46.5297H36.8447V50.3346H31.1964V46.5297Z" fill="#FFC61B"/>
<path d="M22.6282 52.1891H28.2765V55.994H22.6282V52.1891Z" fill="#FEE187"/>
<path d="M31.1964 52.1891H36.8447V55.994H31.1964V52.1891Z" fill="#FFC61B"/>
<path d="M42.7134 61.3333H52.9356V71.5555H42.7134V61.3333Z" fill="#C92F00"/>
<path d="M47.4467 61.3333H52.9354V71.5555H47.4467V61.3333Z" fill="#930000"/>
<path d="M25.7104 61.3333H33.7644V71.5555H25.7104V61.3333Z" fill="#FFC61B"/>
<path d="M29.6351 61.3333H33.7652V71.5555H29.6351V61.3333Z" fill="#EAA22F"/>
<path d="M74.1111 74.5758H17.889C16.4777 74.5758 15.3335 73.4315 15.3335 72.0202C15.3335 70.609 16.4777 69.4647 17.889 69.4647H74.1113C75.5225 69.4647 76.6668 70.609 76.6668 72.0202C76.6668 73.4315 75.5225 74.5758 74.1111 74.5758Z" fill="#FF5419"/>
<path d="M74.111 69.4647H46.0518V74.5758H74.1112C75.5225 74.5758 76.6667 73.4315 76.6667 72.0202C76.6667 70.609 75.5225 69.4647 74.111 69.4647Z" fill="#C92F00"/>
</g>
<defs>
<clipPath id="clip0_333_1202">
<rect width="92" height="92" fill="white"/>
</clipPath>
</defs>
</svg>
