<svg width="36" height="30" viewBox="0 0 36 30" fill="none" xmlns="http://www.w3.org/2000/svg">
<path d="M18 23.425C21.45 23.425 24.25 20.6125 24.25 17.175C24.25 13.725 21.45 10.925 18 10.925C14.55 10.925 11.75 13.725 11.75 17.175C11.75 20.6125 14.55 23.425 18 23.425ZM18 12.8C18.6875 12.8 19.25 13.35 19.25 14.05C19.25 14.7375 18.6875 15.3 18 15.3C16.9625 15.3 16.125 16.1375 16.125 17.175C16.125 17.8625 15.5625 18.425 14.875 18.425C14.1875 18.425 13.625 17.8625 13.625 17.175C13.625 14.7625 15.5875 12.8 18 12.8Z" fill="#BDBDBD"/>
<path d="M31.75 4.425H26.125C25.575 4.425 25.075 4.05 24.925 3.525L24.6875 2.7C24.4566 1.92326 23.9819 1.24141 23.3336 0.755199C22.6853 0.26899 21.8978 0.00421652 21.0875 0H14.9125C13.2625 0 11.775 1.1125 11.3125 2.7L11.075 3.525C10.925 4.05 10.425 4.425 9.875 4.425H4.25C2.1875 4.425 0.5 6.1 0.5 8.175V26.25C0.5 28.3125 2.1875 30 4.25 30H31.75C33.8125 30 35.5 28.3125 35.5 26.25V8.175C35.5 6.1 33.8125 4.425 31.75 4.425ZM18 8.425C22.825 8.425 26.75 12.35 26.75 17.175C26.75 22 22.825 25.925 18 25.925C13.175 25.925 9.25 22 9.25 17.175C9.25 12.35 13.175 8.425 18 8.425Z" fill="#BDBDBD"/>
</svg>
