<svg width="18" height="18" viewBox="0 0 18 18" fill="none" xmlns="http://www.w3.org/2000/svg">
<g clip-path="url(#clip0_333_984)">
<path d="M7.23177 -0.00219727C6.72239 -0.000291919 6.23431 0.202406 5.87344 0.561912C5.51256 0.921418 5.30802 1.40873 5.30418 1.9181H12.6937C12.6898 1.40915 12.4856 0.922201 12.1253 0.562763C11.7649 0.203326 11.2775 0.000345938 10.7685 -0.00219727H7.23177ZM0.651718 2.55982C0.567127 2.55982 0.483365 2.57648 0.405213 2.60885C0.327061 2.64122 0.25605 2.68867 0.196235 2.74848C0.136421 2.8083 0.0889729 2.87931 0.0566014 2.95746C0.0242298 3.03561 0.00756836 3.11938 0.00756836 3.20397C0.00756836 3.28856 0.0242298 3.37232 0.0566014 3.45047C0.0889729 3.52862 0.136421 3.59963 0.196235 3.65945C0.25605 3.71926 0.327061 3.76671 0.405213 3.79908C0.483365 3.83145 0.567127 3.84812 0.651718 3.84812H1.8039L2.56958 15.2046C2.67167 16.7092 3.84573 18 5.4087 18H12.5892C14.1521 18 15.3237 16.7092 15.4283 15.2046L16.1964 3.84812H17.3461C17.517 3.84812 17.6808 3.78025 17.8016 3.65945C17.9224 3.53865 17.9903 3.37481 17.9903 3.20397C17.9903 3.03313 17.9224 2.86929 17.8016 2.74848C17.6808 2.62768 17.517 2.55982 17.3461 2.55982C11.155 2.55253 6.68728 2.55982 0.646857 2.55982H0.651718ZM7.06891 6.41985C7.42866 6.41985 7.71792 6.71154 7.71549 7.06643V13.4933C7.72089 13.5811 7.70826 13.669 7.67839 13.7517C7.64853 13.8344 7.60204 13.9101 7.54181 13.9742C7.48158 14.0382 7.40887 14.0893 7.32817 14.1242C7.24747 14.159 7.16048 14.177 7.07256 14.177C6.98463 14.177 6.89764 14.159 6.81694 14.1242C6.73623 14.0893 6.66353 14.0382 6.6033 13.9742C6.54307 13.9101 6.49658 13.8344 6.46672 13.7517C6.43685 13.669 6.42422 13.5811 6.42962 13.4933V7.0713C6.42962 6.71641 6.71402 6.42715 7.07134 6.42472L7.06891 6.41985ZM10.9314 6.41985C11.2863 6.42228 11.5731 6.71154 11.5707 7.06643V13.4933C11.5707 13.6642 11.5028 13.828 11.382 13.9488C11.2612 14.0696 11.0974 14.1375 10.9265 14.1375C10.7557 14.1375 10.5918 14.0696 10.471 13.9488C10.3502 13.828 10.2824 13.6642 10.2824 13.4933V7.0713C10.2824 6.71398 10.5741 6.42472 10.9314 6.42472V6.41985Z" fill="#2885C9"/>
</g>
<defs>
<clipPath id="clip0_333_984">
<rect width="18" height="18" fill="white"/>
</clipPath>
</defs>
</svg>
