<svg width="18" height="18" viewBox="0 0 18 18" fill="none" xmlns="http://www.w3.org/2000/svg">
<g clip-path="url(#clip0_333_975)">
<path d="M14.0058 8.10409L8.98066 13.1292C8.90031 13.2096 8.8049 13.2734 8.69988 13.3169C8.59486 13.3605 8.48228 13.3829 8.3686 13.3829H5.48288C5.25327 13.3829 5.03308 13.2916 4.87072 13.1293C4.70837 12.9669 4.61716 12.7467 4.61716 12.5171V9.63141C4.61716 9.402 4.70835 9.18153 4.87081 9.01935L9.89592 3.99425L14.0058 8.10409ZM15.2299 6.87997L16.3493 5.7606C16.9004 5.20942 17.1801 4.518 17.1801 3.70567C17.1801 2.91239 16.8958 2.22616 16.3348 1.66518C15.7739 1.10419 15.0876 0.819948 14.2943 0.819948C13.482 0.819948 12.7906 1.09957 12.2394 1.65075L11.12 2.77012L15.2299 6.87997ZM17.8915 15.4029V9.34284H15.8715V15.1143C15.8715 15.5916 15.4831 15.98 15.0058 15.98H2.88572C2.40843 15.98 2.02001 15.5916 2.02001 15.1143V2.99425C2.02001 2.51695 2.40843 2.12853 2.88572 2.12853H8.65717V0.108521H2.59715C1.16526 0.108521 0 1.27378 0 2.70567V15.4029C0 16.8348 1.16526 18 2.59715 18H15.2943C16.7262 18 17.8915 16.8348 17.8915 15.4029Z" fill="#2885C9"/>
</g>
<defs>
<clipPath id="clip0_333_975">
<rect width="18" height="18" fill="white"/>
</clipPath>
</defs>
</svg>
