<svg xmlns="http://www.w3.org/2000/svg" version="1.1" xmlns:xlink="http://www.w3.org/1999/xlink"
    width="512" height="512" x="0" y="0" viewBox="0 0 32 32"
    style="enable-background:new 0 0 512 512" xml:space="preserve" fill-rule="evenodd" class=""><g><path d="M16 7c3.084 0 5.945 1.352 8.257 3.002 3.366 2.403 5.551 5.409 5.551 5.409a1 1 0 0 1 0 1.178s-2.185 3.006-5.551 5.409C21.945 23.648 19.084 25 16 25s-5.945-1.352-8.257-3.002c-3.366-2.403-5.551-5.409-5.551-5.409a1 1 0 0 1 0-1.178s2.185-3.006 5.551-5.409C10.055 8.352 12.916 7 16 7zm0 2c-2.656 0-5.103 1.208-7.095 2.63-2.212 1.58-3.871 3.441-4.633 4.37.762.929 2.421 2.79 4.633 4.37C10.897 21.792 13.344 23 16 23s5.103-1.208 7.095-2.63c2.212-1.58 3.871-3.441 4.633-4.37-.762-.929-2.421-2.79-4.633-4.37C21.103 10.208 18.656 9 16 9zm0 2c2.76 0 5 2.24 5 5s-2.24 5-5 5-5-2.24-5-5 2.24-5 5-5z" fill="#151515" opacity="0.6" data-original="#000000" class=""></path></g></svg>