
<svg width="18" height="18" viewBox="0 0 18 18" fill="none" xmlns="http://www.w3.org/2000/svg">
<path d="M15.5535 15.7H15.7735V15.48V2.52002V2.30002H15.5535H2.59347H2.37347V2.52002V15.48V15.7H2.59347H15.5535ZM16.2735 15.98H16.0535V16.2V17.14H17.2135V15.98H16.2735ZM16.0535 1.80002V2.02002H16.2735H17.2135V0.860016H16.0535V1.80002ZM1.87347 2.02002H2.09347V1.80002V0.860016H0.933472V2.02002H1.87347ZM2.09347 16.2V15.98H1.87347H0.933472V17.14H2.09347V16.2ZM14.6135 14.04V14.54H14.1135H4.03347H3.53347V14.04V3.96002V3.46002H4.03347H14.1135H14.6135V3.96002V14.04Z" fill="#2885C9" stroke="#2885C9"/>
<rect x="5" y="5" width="8" height="8" fill="#2885C9"/>
</svg>
