<svg width="18" height="18" viewBox="0 0 18 18" fill="none" xmlns="http://www.w3.org/2000/svg">
<path d="M17.0609 8.23234L17.0873 8.25536C17.2026 8.36398 17.2849 8.5033 17.3241 8.65722C17.3662 8.82229 17.3569 8.99627 17.2973 9.15588C17.2378 9.31549 17.131 9.4531 16.9911 9.5503C16.8512 9.64749 16.6849 9.69963 16.5146 9.69973H15.5958H14.9458V10.3497V15.6681C14.9456 15.8908 14.857 16.1043 14.6995 16.2618C14.542 16.4193 14.3285 16.5079 14.1057 16.5081H11.9796C11.7569 16.5079 11.5433 16.4193 11.3858 16.2618C11.2284 16.1043 11.1398 15.8908 11.1395 15.6681V13.6739C11.1537 13.1351 10.9717 12.6093 10.6272 12.1944C10.2804 11.7767 9.79277 11.5002 9.25623 11.4171L9.24181 11.4149L9.2273 11.4133C8.92755 11.3806 8.62428 11.412 8.33757 11.5054C8.05117 11.5987 7.78784 11.7517 7.56502 11.9544C7.34346 12.1551 7.16635 12.3999 7.04507 12.6731C6.92367 12.9467 6.86091 13.2426 6.86083 13.5419V13.542L6.86083 15.6689C6.86083 15.669 6.86083 15.6692 6.86083 15.6693C6.86048 15.8919 6.7719 16.1053 6.61449 16.2627C6.457 16.4202 6.24347 16.5087 6.02075 16.509H3.89423C3.67142 16.5089 3.45776 16.4203 3.30017 16.2628C3.14266 16.1054 3.05401 15.8919 3.05366 15.6693V10.3506V9.70058H2.40366H1.48453H1.48424C1.31351 9.70066 1.14685 9.64845 1.00667 9.55099C0.866489 9.45353 0.759513 9.31549 0.700127 9.15542C0.640739 8.99535 0.631789 8.82093 0.674478 8.65563C0.717167 8.49032 0.809449 8.34205 0.938914 8.23075L0.938922 8.23076L0.941891 8.22817L8.4454 1.69813C8.44559 1.69796 8.44578 1.6978 8.44597 1.69763C8.60003 1.5644 8.7969 1.49106 9.0006 1.49106C9.20428 1.49106 9.40115 1.56439 9.5552 1.69762C9.5554 1.69779 9.5556 1.69796 9.55579 1.69813L17.0609 8.23234Z" fill="white" stroke="#333333" stroke-width="1.3"/>
</svg>
