<svg width="18" height="18" viewBox="0 0 18 18" fill="none" xmlns="http://www.w3.org/2000/svg">
<path d="M17.4877 7.74211L9.98137 1.20687C9.70907 0.970939 9.36084 0.841064 9.00054 0.841064C8.64023 0.841064 8.292 0.970939 8.0197 1.20687L0.515118 7.73785C0.284984 7.93569 0.120947 8.19926 0.0450637 8.4931C-0.0308194 8.78695 -0.0149089 9.09698 0.0906558 9.38151C0.19622 9.66605 0.386377 9.91143 0.635555 10.0847C0.884732 10.2579 1.18098 10.3507 1.48447 10.3506H2.4036V15.6697C2.40405 16.0647 2.56123 16.4434 2.84062 16.7226C3.12001 17.0018 3.49879 17.1588 3.8938 17.159H6.02143C6.41629 17.1585 6.79485 17.0015 7.07405 16.7223C7.35326 16.4431 7.51032 16.0645 7.51077 15.6697V13.542C7.51082 13.3335 7.55455 13.1274 7.63912 12.9368C7.7237 12.7463 7.84725 12.5756 8.00183 12.4357C8.15667 12.2947 8.33972 12.1883 8.53882 12.1234C8.73792 12.0586 8.94854 12.0368 9.1567 12.0595C9.53646 12.1183 9.8816 12.314 10.1271 12.6096C10.3726 12.9053 10.5015 13.2805 10.4895 13.6646V15.6688C10.4899 16.0637 10.647 16.4422 10.9262 16.7214C11.2054 17.0006 11.5839 17.1577 11.9788 17.1581H14.1064C14.5013 17.1577 14.8798 17.0006 15.159 16.7214C15.4383 16.4422 15.5953 16.0637 15.5958 15.6688V10.3497H16.5149C16.8177 10.3496 17.1132 10.2569 17.3619 10.0841C17.6106 9.91133 17.8005 9.66671 17.9063 9.383C18.0121 9.09929 18.0287 8.79002 17.9539 8.49661C17.8791 8.2032 17.7164 7.93965 17.4877 7.74125V7.74211Z" fill="#2885C9"/>
</svg>
