<svg width="92" height="92" viewBox="0 0 92 92" fill="none" xmlns="http://www.w3.org/2000/svg">
<path d="M46 92C71.4051 92 92 71.4051 92 46C92 20.5949 71.4051 0 46 0C20.5949 0 0 20.5949 0 46C0 71.4051 20.5949 92 46 92Z" fill="#FFD15C"/>
<path d="M64.4368 88.1527C80.4176 81.153 91.6537 65.3347 91.9893 46.8513L61.5961 16.4581L61.4913 17.4112L57.03 12.9499L24.2249 47.941L64.4368 88.1527Z" fill="#F0AD2B"/>
<path d="M34.0714 60.1355H64.2083V69.5391H27.9114V60.1355H34.0714Z" fill="#B9EAFF"/>
<path d="M45.991 60.136H64.2077V69.539H45.991V60.136Z" fill="#91CDFF"/>
<path d="M23.9441 45.391C23.9441 43.7241 25.0222 43.7241 25.0222 42.0571C25.0222 40.3902 23.9441 40.3901 23.9441 38.723C23.9441 37.0557 25.0222 37.0557 25.0222 35.3884C25.0222 33.7211 23.9441 33.721 23.9441 32.0537C23.9441 31.1016 25.0795 30.2337 25.1994 29.3142C25.3221 28.3732 24.4503 27.2424 24.6905 26.3438C24.9349 25.4299 26.2565 24.8856 26.6139 24.0239C26.9754 23.1522 26.4279 21.8331 26.8962 21.0236C27.3677 20.2085 28.7852 20.0258 29.3561 19.283C29.9288 18.5376 29.7406 17.1213 30.4044 16.4578C31.068 15.7942 32.4843 15.9823 33.2296 15.4096C33.9725 14.8388 34.1554 13.4212 34.9703 12.9497C35.7796 12.4814 37.0988 13.029 37.9703 12.6674C38.8321 12.31 39.3764 10.9884 40.2903 10.7442C41.1889 10.504 42.3197 11.3758 43.2605 11.2533C44.18 11.1334 45.0478 9.99799 46 9.99799C46.9522 9.99799 47.8201 11.1334 48.7395 11.2533C49.6806 11.376 50.8113 10.5042 51.7099 10.7444C52.6238 10.9888 53.1681 12.3104 54.0299 12.6678C54.9016 13.0293 56.2206 12.4818 57.0301 12.9501C57.8452 13.4216 58.0279 14.8391 58.7708 15.41C59.5161 15.9827 60.9324 15.7945 61.596 16.4583C62.2596 17.1219 62.0714 18.5382 62.6441 19.2835C63.215 20.0263 64.6325 20.2093 65.104 21.0241C65.5723 21.8335 65.0248 23.1527 65.3863 24.0242C65.7437 24.886 67.0653 25.4303 67.3095 26.3442C67.5498 27.2428 66.6779 28.3736 66.8005 29.3144C66.9203 30.2339 68.0558 31.1017 68.0558 32.0539C68.0558 33.7201 66.9776 33.7201 66.9776 35.3864C66.9776 37.0528 68.0558 37.0528 68.0558 38.7192C68.0558 40.386 66.9776 40.386 66.9776 42.0526C66.9776 43.719 68.0558 43.719 68.0558 45.3855L23.9441 45.391Z" fill="#4D4D4D"/>
<path d="M66.9779 35.3864C66.9779 33.7201 68.056 33.7201 68.056 32.0539C68.056 31.1017 66.9206 30.2339 66.8007 29.3144C66.678 28.3735 67.5498 27.2428 67.3098 26.3442C67.0656 25.4303 65.7438 24.886 65.3866 24.0242C65.025 23.1525 65.5725 21.8335 65.1043 21.0241C64.6328 20.2091 63.2152 20.0263 62.6444 19.2833C62.0717 18.538 62.2598 17.1217 61.5962 16.4581C60.9326 15.7945 59.5162 15.9827 58.771 15.41C58.028 14.8391 57.8453 13.4216 57.0302 12.9501C56.2209 12.4818 54.9016 13.0293 54.03 12.6678C53.1682 12.3104 52.6239 10.9888 51.71 10.7444C50.8114 10.5042 49.6806 11.376 48.7396 11.2533C47.8201 11.1334 46.9522 9.99799 46.0001 9.99799L45.9915 9.99853V45.3882L68.0558 45.3855C68.0558 43.719 66.9777 43.719 66.9777 42.0526C66.9777 40.3858 68.0558 40.3858 68.0558 38.7192C68.056 37.0528 66.9779 37.0528 66.9779 35.3864Z" fill="#333333"/>
<path d="M28.1841 49.7627C31.065 49.7627 33.4004 47.4272 33.4004 44.5463C33.4004 41.6654 31.065 39.33 28.1841 39.33C25.3032 39.33 22.9678 41.6654 22.9678 44.5463C22.9678 47.4272 25.3032 49.7627 28.1841 49.7627Z" fill="#AA6E4D"/>
<path d="M63.8159 49.7627C66.6968 49.7627 69.0323 47.4272 69.0323 44.5463C69.0323 41.6654 66.6968 39.33 63.8159 39.33C60.935 39.33 58.5996 41.6654 58.5996 44.5463C58.5996 47.4272 60.935 49.7627 63.8159 49.7627Z" fill="#9B6043"/>
<path d="M46 92C56.8163 92 66.7591 88.265 74.6134 82.0168L73.476 71.5613C73.1817 68.8563 71.0684 66.7072 68.3687 66.3676L52.677 64.5529V55.1583H39.3231V64.5529L23.6314 66.3676C20.9316 66.7072 18.8183 68.8563 18.5241 71.5613L17.3867 82.0166C25.2409 88.2649 35.1837 92 46 92Z" fill="#AA6E4D"/>
<path d="M74.6135 82.0168L73.4761 71.5613C73.1818 68.8563 71.0685 66.7072 68.3687 66.3676L52.6769 64.5529V55.1583H45.9915V92H46.0001C56.8164 92 66.7592 88.2649 74.6135 82.0168Z" fill="#9B6043"/>
<path d="M46 61.5836C35.8381 61.5836 27.6003 53.3458 27.6003 43.184V32.6699C27.6003 22.508 35.8381 14.2703 46 14.2703C56.1618 14.2703 64.3996 22.508 64.3996 32.6699V43.184C64.3996 53.3458 56.1618 61.5836 46 61.5836Z" fill="#C18761"/>
<path d="M46.0001 14.2703L45.9915 14.2704V61.5836H46.0001C56.1619 61.5836 64.3997 53.3458 64.3997 43.184V32.6699C64.3997 22.5082 56.1619 14.2703 46.0001 14.2703Z" fill="#AA6E4D"/>
<path d="M46.0001 56.4799C42.99 56.4799 40.541 54.0311 40.541 51.021H42.6973C42.6973 52.8421 44.179 54.3237 46.0001 54.3237C47.8212 54.3237 49.3029 52.8419 49.3029 51.021H51.4592C51.4592 54.0309 49.0102 56.4799 46.0001 56.4799Z" fill="#9B6043"/>
<path d="M49.3029 51.0208C49.3029 52.8419 47.8212 54.3235 46.0001 54.3235L45.9915 54.3231V56.4795L46.0001 56.4797C49.0102 56.4797 51.4592 54.0309 51.4592 51.0208H49.3029Z" fill="#7F462D"/>
<path d="M73.4759 71.5615C73.1816 68.8564 71.0683 66.7074 68.3687 66.3678L53.4869 64.6467C52.0629 67.3253 49.2451 69.1499 45.9999 69.1499C42.7548 69.1499 39.9369 67.3253 38.5129 64.6467L23.6312 66.3678C20.9313 66.7074 18.818 68.8564 18.5239 71.5615L17.3865 82.0168C25.2408 88.2649 35.1836 92 45.9999 92C56.8162 92 66.759 88.265 74.6133 82.0168L73.4759 71.5615Z" fill="#91CDFF"/>
<path d="M74.6134 82.0167L73.476 71.5612C73.1817 68.8562 71.0684 66.7071 68.3686 66.3675L53.4869 64.6465C52.0628 67.3249 49.245 69.1496 45.9998 69.1496L45.9912 69.1495V92H45.9998C56.8163 92 66.7591 88.2648 74.6134 82.0167Z" fill="#1E8CE6"/>
<path d="M38.1891 46.2541C37.8016 46.2541 37.43 46.1002 37.156 45.8262C36.882 45.5522 36.728 45.1805 36.728 44.793V42.6549C36.728 42.2675 36.882 41.8958 37.156 41.6218C37.43 41.3478 37.8016 41.1939 38.1891 41.1939C38.5766 41.1939 38.9482 41.3478 39.2222 41.6218C39.4962 41.8958 39.6501 42.2675 39.6501 42.6549V44.793C39.6501 44.9849 39.6124 45.1749 39.5389 45.3522C39.4655 45.5295 39.3579 45.6905 39.2222 45.8262C39.0866 45.9619 38.9255 46.0695 38.7482 46.1429C38.5709 46.2163 38.3809 46.2541 38.1891 46.2541Z" fill="#4D4D4D"/>
<path d="M53.8109 46.2541C53.4234 46.2541 53.0518 46.1002 52.7778 45.8262C52.5038 45.5522 52.3499 45.1805 52.3499 44.793V42.6549C52.3499 42.2675 52.5038 41.8958 52.7778 41.6218C53.0518 41.3478 53.4234 41.1939 53.8109 41.1939C54.1984 41.1939 54.57 41.3478 54.844 41.6218C55.118 41.8958 55.2719 42.2675 55.2719 42.6549V44.793C55.272 44.9849 55.2342 45.1749 55.1608 45.3522C55.0873 45.5295 54.9797 45.6905 54.8441 45.8262C54.7084 45.9619 54.5473 46.0695 54.37 46.1429C54.1928 46.2163 54.0028 46.2541 53.8109 46.2541Z" fill="#333333"/>
<path d="M58.902 17.8404L56.6254 16.5426C56.0063 13.9234 53.5198 11.9285 50.5622 12.2439L43.0936 13.0403C32.8994 14.1272 25.1667 22.7283 25.1667 32.9804V37.927L26.829 37.4151V46.8057C26.829 48.3142 28.0518 49.537 29.5603 49.537V49.4669C29.5603 48.9521 29.8634 48.5 30.3177 48.2578C30.586 48.115 30.8104 47.9019 30.9669 47.6413C31.1234 47.3808 31.206 47.0825 31.2059 46.7786C31.2059 46.0586 30.7518 45.4453 30.1146 45.2079C29.7809 45.0836 29.5702 44.753 29.5874 44.3974L29.5885 44.3765C29.6083 43.9652 29.9277 43.6427 30.3362 43.5909C30.4322 43.5787 30.5269 43.5584 30.6195 43.5304C31.2122 43.3512 31.6689 42.8449 31.7775 42.2354C31.8793 41.6631 31.6905 41.1315 31.3342 40.7628C31.0544 40.4733 31.0229 40.0257 31.2673 39.7057L31.2838 39.684C31.5302 39.3614 31.9798 39.2684 32.3284 39.4763C32.6639 39.6763 33.075 39.7623 33.5096 39.68C34.1793 39.5532 34.7144 39.0098 34.8327 38.3385C34.8727 38.1155 34.868 37.8867 34.8188 37.6655C34.7378 37.3042 34.9229 36.9375 35.2744 36.8208L35.3186 36.8061C35.6605 36.6927 36.0314 36.8433 36.2037 37.1595C36.3475 37.4241 36.56 37.645 36.8189 37.7989C37.0777 37.9528 37.3733 38.034 37.6744 38.0339C38.0207 38.0339 38.3585 37.9267 38.6413 37.7269C38.9242 37.5272 39.1382 37.2447 39.2541 36.9184C39.3705 36.5903 39.6921 36.3799 40.0402 36.3799C40.3884 36.3799 40.7099 36.5903 40.8263 36.9184C40.9427 37.2459 41.1581 37.5292 41.4425 37.7289C41.7269 37.9287 42.0664 38.0351 42.414 38.0335C42.7616 38.0318 43.1001 37.9221 43.3826 37.7197C43.6651 37.5172 43.8777 37.2319 43.991 36.9033C44.0966 36.5964 44.3707 36.3797 44.6952 36.3797H44.7884C45.113 36.3797 45.387 36.5964 45.4926 36.9033C45.7192 37.5611 46.3429 38.0337 47.0777 38.0337C47.3981 38.0338 47.7118 37.942 47.9817 37.7693C48.2515 37.5966 48.4662 37.3501 48.6003 37.0591C48.7836 36.662 49.1292 36.3637 49.5593 36.2845L49.6427 36.269C50.0233 36.1988 50.4243 36.2625 50.7431 36.4819C51.0939 36.7234 51.5407 36.8349 52.016 36.745C52.6672 36.6219 53.1919 36.1021 53.329 35.4538C53.3744 35.2429 53.3786 35.0252 53.3416 34.8127C53.2898 34.5187 53.3797 34.2177 53.5717 33.9893L53.5793 33.9803C53.7755 33.7471 54.0619 33.6177 54.3661 33.5983C54.5326 33.5874 54.6964 33.551 54.8518 33.4903C55.4362 33.265 55.8669 32.7285 55.9325 32.1055C55.9798 31.6738 55.857 31.2408 55.5902 30.8982C55.313 30.5412 55.1628 30.102 55.1634 29.65V29.6416L55.5341 29.6418C55.8486 29.642 56.1014 29.8869 56.1273 30.2001C56.1379 30.3287 56.1645 30.4608 56.2101 30.5954C56.4196 31.2124 56.9777 31.6708 57.626 31.7359C57.9084 31.7653 58.1935 31.7223 58.4547 31.611C58.7158 31.4998 58.9443 31.3239 59.1187 31.0999C59.2014 30.9943 59.3512 30.9661 59.4592 31.0457L59.4984 31.0748C59.6107 31.1587 59.6224 31.3186 59.5356 31.4288C59.275 31.7583 59.1485 32.1741 59.1814 32.593C59.2407 33.3795 59.8644 34.0341 60.6475 34.1282C60.893 34.1585 61.1421 34.134 61.377 34.0567C61.6169 33.9775 61.881 34.1106 61.9705 34.3469L61.9826 34.3791C62.0659 34.6024 61.9615 34.845 61.7547 34.9639C61.499 35.1106 61.2864 35.3222 61.1387 35.5773C60.9909 35.8324 60.9132 36.1221 60.9132 36.4169C60.9132 36.7302 61.0009 37.0372 61.1665 37.3032C61.3321 37.5691 61.5689 37.7833 61.8501 37.9214C62.0273 38.0092 62.1763 38.1448 62.2804 38.313C62.3845 38.4811 62.4394 38.675 62.439 38.8727C62.4394 39.0704 62.3845 39.2643 62.2804 39.4324C62.1763 39.6005 62.0273 39.7362 61.8501 39.824C61.5692 39.9622 61.3325 40.1764 61.1671 40.4422C61.0016 40.7081 60.914 41.015 60.9141 41.3281C60.9141 41.6511 61.0074 41.9671 61.1827 42.2383C61.358 42.5095 61.6079 42.7243 61.9024 42.8569C62.2215 43.0006 62.4399 43.3022 62.4399 43.6522V43.7359C62.4399 44.086 62.2215 44.3875 61.9024 44.5312C61.6079 44.6637 61.358 44.8785 61.1826 45.1497C61.0073 45.421 60.9141 45.7371 60.9141 46.06C60.9139 46.3138 60.9715 46.5644 61.0824 46.7927C61.1934 47.021 61.3548 47.221 61.5545 47.3777C62.1351 47.8346 62.44 48.5593 62.44 49.298V49.5371C63.9485 49.5371 65.1713 48.3144 65.1713 46.8059V28.631C65.1713 26.4392 64.5913 24.2864 63.4902 22.3912C62.3891 20.496 60.8061 18.926 58.902 17.8404Z" fill="#4D4D4D"/>
<path d="M58.9018 17.8404L56.6252 16.5426C56.0062 13.9234 53.5196 11.9285 50.562 12.2439L45.9915 12.7312V37.6334C46.2943 37.8923 46.6798 38.0343 47.0782 38.0337C47.3986 38.0338 47.7123 37.942 47.9822 37.7693C48.2521 37.5966 48.4668 37.3501 48.6009 37.0591C48.7842 36.662 49.1299 36.3637 49.5599 36.2843L49.6432 36.269C50.0238 36.1988 50.4251 36.2625 50.7438 36.4819C51.0946 36.7234 51.5415 36.8349 52.0166 36.745C52.6679 36.6219 53.1924 36.1021 53.3297 35.4538C53.3751 35.2429 53.3794 35.0252 53.3423 34.8127C53.2905 34.5187 53.3804 34.2177 53.5725 33.9891L53.58 33.9802C53.7762 33.7469 54.0627 33.6175 54.3669 33.5981C54.5333 33.5872 54.6971 33.5508 54.8526 33.4902C55.4369 33.2648 55.8676 32.7283 55.9332 32.1053C55.9805 31.6737 55.8577 31.2406 55.5909 30.898C55.3137 30.541 55.1635 30.1018 55.1641 29.6499V29.6414L55.5348 29.6416C55.8493 29.6418 56.1021 29.8867 56.128 30.1999C56.1386 30.3287 56.1652 30.4606 56.2108 30.5952C56.4203 31.2122 56.9783 31.6706 57.6268 31.7357C57.9091 31.7651 58.1942 31.7221 58.4554 31.6109C58.7165 31.4996 58.945 31.3237 59.1194 31.0998C59.2021 30.9941 59.3519 30.9657 59.4599 31.0455L59.4991 31.0746C59.6114 31.1585 59.6231 31.3184 59.5363 31.4284C59.2758 31.758 59.1493 32.1738 59.1821 32.5926C59.2414 33.3791 59.8653 34.0337 60.6482 34.1279C60.8937 34.1581 61.1428 34.1337 61.3777 34.0563C61.6176 33.9771 61.8818 34.1103 61.9712 34.3465L61.9833 34.3785C62.0667 34.6019 61.9623 34.8445 61.7554 34.9634C61.4997 35.11 61.2872 35.3216 61.1394 35.5767C60.9916 35.8318 60.9139 36.1214 60.914 36.4162C60.9139 36.7295 61.0016 37.0365 61.1672 37.3024C61.3328 37.5684 61.5697 37.7826 61.8509 37.9207C62.2126 38.0988 62.4399 38.4688 62.4399 38.872C62.4399 39.2752 62.2127 39.6452 61.8509 39.8232C61.5697 39.9615 61.3329 40.1757 61.1673 40.4417C61.0017 40.7077 60.9139 41.0148 60.914 41.3281C60.9139 41.6511 61.0072 41.9671 61.1825 42.2383C61.3578 42.5095 61.6078 42.7243 61.9022 42.8569C62.2212 43.0006 62.4397 43.3023 62.4397 43.6522V43.7359C62.4397 44.086 62.2212 44.3875 61.9022 44.5312C61.6077 44.6637 61.3577 44.8785 61.1824 45.1497C61.0071 45.4209 60.9139 45.7371 60.914 46.06C60.9138 46.3138 60.9713 46.5644 61.0823 46.7927C61.1932 47.021 61.3547 47.221 61.5544 47.3777C62.1349 47.8344 62.4397 48.5591 62.4397 49.298V49.5371C63.9482 49.5371 65.1709 48.3144 65.1709 46.8059V28.631C65.171 26.4392 64.5911 24.2864 63.49 22.3912C62.3889 20.496 60.806 18.926 58.9018 17.8404Z" fill="#333333"/>
<path d="M63.6093 66.9636C63.6093 66.5663 63.5412 66.1759 63.4111 65.7944L53.487 64.6467C52.063 67.3252 49.2451 69.1499 45.9999 69.1499C42.7548 69.1499 39.9371 67.3253 38.5129 64.6467L27.9667 65.8664C27.852 66.2251 27.7385 66.5951 27.7915 66.9636C28.2556 70.1904 45.9913 81.3339 45.9913 81.3339C45.9913 81.3339 63.6093 71.297 63.6093 66.9636Z" fill="#F1333F"/>
<path d="M63.4113 65.7944L53.4871 64.6467C52.0631 67.3252 49.2452 69.1499 46.0001 69.1499L45.9915 69.1497V81.3339C45.9915 81.3339 63.6095 71.297 63.6095 66.9636C63.6095 66.5661 63.5414 66.1759 63.4113 65.7944Z" fill="#AE283F"/>
<path d="M31.6816 68.9312C30.9714 68.5146 30.3825 67.9195 29.9733 67.205C29.5641 66.4905 29.3489 65.6814 29.3489 64.858C29.3489 62.2499 31.4633 60.1355 34.0714 60.1355H27.6027C24.9945 60.1355 22.8801 62.2499 22.8801 64.858C22.8801 65.6814 23.0954 66.4905 23.5046 67.205C23.9137 67.9195 24.5026 68.5146 25.2128 68.9312L45.9914 81.3338L45.7811 80.104C45.7661 80.018 45.7403 79.9342 45.7046 79.8546C44.622 77.4655 42.8263 75.4702 40.5641 74.1429L31.6816 68.9312Z" fill="white"/>
<path d="M60.3185 68.9312C61.0287 68.5146 61.6176 67.9195 62.0268 67.205C62.4359 66.4905 62.6512 65.6814 62.6512 64.858C62.6512 62.2499 60.5368 60.1355 57.9286 60.1355H64.3974C67.0056 60.1355 69.1199 62.2499 69.1199 64.858C69.12 65.6814 68.9047 66.4905 68.4955 67.205C68.0863 67.9195 67.4974 68.5146 66.7872 68.9312L45.9915 81.3338L46.2188 80.104C46.234 80.0181 46.2594 79.934 46.2953 79.8546C47.3779 77.4655 49.1736 75.4702 51.4358 74.1429L60.3185 68.9312Z" fill="#E0E0E0"/>
<path d="M41.2383 89.125C40.9523 89.125 40.6781 89.0114 40.4759 88.8092C40.2737 88.607 40.1602 88.3328 40.1602 88.0469V77.1758C40.1602 76.8898 40.2737 76.6156 40.4759 76.4134C40.6781 76.2112 40.9523 76.0977 41.2383 76.0977C41.5242 76.0977 41.7984 76.2112 42.0006 76.4134C42.2028 76.6156 42.3164 76.8898 42.3164 77.1758V88.0469C42.3164 88.3328 42.2028 88.607 42.0006 88.8092C41.7984 89.0114 41.5242 89.125 41.2383 89.125Z" fill="#008CC3"/>
<path d="M50.7617 89.125C50.4758 89.125 50.2016 89.0114 49.9994 88.8092C49.7972 88.607 49.6836 88.3328 49.6836 88.0469V77.1758C49.6836 76.8898 49.7972 76.6156 49.9994 76.4134C50.2016 76.2112 50.4758 76.0977 50.7617 76.0977C51.0477 76.0977 51.3219 76.2112 51.5241 76.4134C51.7263 76.6156 51.8398 76.8898 51.8398 77.1758V88.0469C51.8398 88.3328 51.7263 88.607 51.5241 88.8092C51.3219 89.0114 51.0477 89.125 50.7617 89.125Z" fill="#0074A3"/>
</svg>
