<svg width="18" height="18" viewBox="0 0 18 18" fill="none" xmlns="http://www.w3.org/2000/svg">
<g clip-path="url(#clip0_333_2684)">
<path d="M9.00007 0C4.02753 0 0 4.02753 0 9.00007C0 13.9726 4.02753 18.0001 9.00007 18.0001C13.9726 18.0001 18.0001 13.9726 18.0001 9.00007C18.0001 4.02753 13.9726 0 9.00007 0ZM13.7326 8.45257L11.7901 10.3501L12.2476 13.0276C12.2676 13.1363 12.2565 13.2485 12.2155 13.3512C12.1745 13.4538 12.1054 13.5429 12.016 13.6079C11.9266 13.673 11.8207 13.7115 11.7104 13.7189C11.6001 13.7264 11.4899 13.7025 11.3926 13.6501L9.00007 12.3901L6.60755 13.6501C6.51023 13.7025 6.40006 13.7264 6.28976 13.7189C6.17946 13.7115 6.07352 13.673 5.98415 13.6079C5.89477 13.5429 5.82561 13.4538 5.78463 13.3512C5.74365 13.2485 5.73253 13.1363 5.75254 13.0276L6.21005 10.3501L4.26753 8.45257C3.92253 8.10756 4.11003 7.50756 4.59754 7.44006L7.27506 7.05005L8.46756 4.60504C8.51763 4.50686 8.59386 4.42444 8.68784 4.36688C8.78181 4.30931 8.88987 4.27885 9.00007 4.27885C9.11027 4.27885 9.21833 4.30931 9.3123 4.36688C9.40627 4.42444 9.48251 4.50686 9.53257 4.60504L10.7251 7.05005L13.4026 7.44006C13.8901 7.50756 14.0776 8.10756 13.7326 8.45257Z" fill="#2885C9"/>
</g>
<defs>
<clipPath id="clip0_333_2684">
<rect width="18" height="18" fill="white"/>
</clipPath>
</defs>
</svg>
