<svg width="14" height="14" viewBox="0 0 14 14" fill="none" xmlns="http://www.w3.org/2000/svg">
<path d="M6.29196 0.287554C4.70231 0.290219 3.17854 0.922884 2.05449 2.04693C0.930435 3.17098 0.29777 4.69476 0.295105 6.2844C0.296434 7.87539 0.928349 9.40098 2.0524 10.5269C3.17645 11.6529 4.70098 12.2873 6.29196 12.2913C7.70298 12.2913 9.00314 11.795 10.0312 10.9735L12.5282 13.4705C12.6547 13.5882 12.8218 13.6522 12.9945 13.6492C13.1672 13.6461 13.3321 13.5763 13.4544 13.4543C13.5767 13.3323 13.6469 13.1677 13.6504 12.995C13.6539 12.8223 13.5903 12.655 13.4731 12.5282L10.976 10.0287C11.8289 8.96802 12.2938 7.64789 12.2938 6.28692C12.2938 2.9811 9.59778 0.287554 6.29196 0.287554ZM6.29196 1.62299C8.87715 1.62299 10.9584 3.70173 10.9584 6.2844C10.9584 8.86708 8.87715 10.9584 6.29196 10.9584C3.70676 10.9584 1.62802 8.87464 1.62802 6.28944C1.62802 3.70425 3.70676 1.62299 6.29196 1.62299Z" fill="black"/>
</svg>
