
<svg width="18" height="18" viewBox="0 0 18 18" fill="none" xmlns="http://www.w3.org/2000/svg">
<path d="M9.00002 6.2344C7.47262 6.2344 6.23439 7.47259 6.23439 9.00002C6.23439 10.5274 7.47262 11.7656 9.00002 11.7656C10.5274 11.7656 11.7656 10.5274 11.7656 9.00002C11.7656 7.47259 10.5274 6.2344 9.00002 6.2344ZM16.7626 7.02646L16.0138 7.64289C15.1596 8.34605 15.1596 9.65396 16.0138 10.3571L16.7626 10.9735C17.0279 11.192 17.0964 11.5703 16.9246 11.868L15.446 14.4289C15.2742 14.7266 14.9123 14.8564 14.5904 14.7358L13.6822 14.3955C12.6462 14.0074 11.5135 14.6614 11.3316 15.7526L11.1721 16.7093C11.1156 17.0484 10.8223 17.2969 10.4786 17.2969H7.52142C7.17773 17.2969 6.88439 17.0484 6.82789 16.7093L6.66843 15.7526C6.48656 14.6614 5.35387 14.0074 4.31785 14.3955L3.40963 14.7358C3.08774 14.8564 2.72588 14.7266 2.554 14.4289L1.07543 11.868C0.903592 11.5703 0.972111 11.192 1.23747 10.9735L1.9863 10.3571C2.84041 9.65396 2.84041 8.34605 1.9863 7.64289L1.23747 7.02646C0.972111 6.808 0.903592 6.42972 1.07543 6.13206L2.554 3.57111C2.72588 3.27344 3.08774 3.14364 3.40963 3.26423L4.31785 3.60447C5.35387 3.99259 6.48656 3.33865 6.66843 2.24737L6.82789 1.29067C6.88439 0.951656 7.17773 0.703172 7.52142 0.703172H10.4786C10.8223 0.703172 11.1156 0.951656 11.1721 1.29067L11.3316 2.24737C11.5135 3.33865 12.6462 3.99259 13.6822 3.60447L14.5904 3.26423C14.9123 3.14364 15.2742 3.27344 15.446 3.57111L16.9246 6.13206C17.0964 6.42972 17.0279 6.808 16.7626 7.02646Z" stroke="#333333" stroke-width="1.5" stroke-miterlimit="10" stroke-linecap="round" stroke-linejoin="round"/>
</svg>
