<svg width="18" height="18" viewBox="0 0 18 18" fill="none" xmlns="http://www.w3.org/2000/svg">
<g clip-path="url(#clip0_333_2689)">
<path d="M13.5622 11.1552C12.4313 11.1552 11.4276 11.7083 10.8051 12.5578L7.0632 10.2384L7.06342 10.2382C7.2129 9.85449 7.29545 9.43728 7.29545 9C7.29545 8.56316 7.2129 8.14641 7.06387 7.76289L10.8062 5.44484L10.8071 5.44596C11.4296 6.29375 12.4335 6.84482 13.5624 6.84482C15.4499 6.84482 16.9848 5.30987 16.9848 3.42241C16.9848 1.53495 15.4497 0 13.5622 0C11.677 0 10.142 1.53495 10.142 3.42241C10.142 3.85969 10.2246 4.2769 10.3763 4.66063V4.66086L6.63328 6.97957L6.63261 6.97868C6.01015 6.12866 5.00618 5.57759 3.87505 5.57759C1.98759 5.57759 0.452637 7.11254 0.452637 9C0.452637 10.8875 1.98759 12.4224 3.87505 12.4224C5.00618 12.4224 6.00992 11.8713 6.63238 11.0215L10.3743 13.3409L10.3741 13.3416C10.2246 13.7253 10.142 14.1425 10.142 14.5776C10.142 16.465 11.677 18 13.5622 18C15.4497 18 16.9846 16.465 16.9846 14.5776C16.9846 12.6901 15.4497 11.1552 13.5622 11.1552Z" fill="#2885C9"/>
</g>
<defs>
<clipPath id="clip0_333_2689">
<rect width="18" height="18" fill="white"/>
</clipPath>
</defs>
</svg>
