<svg width="18" height="18" viewBox="0 0 18 18" fill="none" xmlns="http://www.w3.org/2000/svg">
<path d="M9 0.175781C5.29137 0.175781 2.28516 3.17848 2.28516 6.88219C2.28522 8.1569 2.64856 9.40519 3.33261 10.4808C4.01666 11.5564 4.99309 12.4148 6.14749 12.9554V12.9312H11.8525V12.9554C13.0069 12.4148 13.9833 11.5564 14.6674 10.4808C15.3514 9.40519 15.7148 8.1569 15.7148 6.88219C15.7148 3.17848 12.7086 0.175781 9 0.175781ZM9.39424 9.94071C9.25801 10.076 9.07382 10.1519 8.88186 10.1519C8.68989 10.1519 8.50571 10.076 8.36947 9.94071C8.26881 9.841 8.20003 9.71363 8.17189 9.57477C8.14374 9.4359 8.15749 9.2918 8.21139 9.16077C8.26529 9.02973 8.3569 8.91766 8.47461 8.83879C8.59231 8.75991 8.7308 8.71779 8.87249 8.71777C8.9687 8.71603 9.06427 8.73364 9.15354 8.76955C9.24281 8.80546 9.32396 8.85893 9.39217 8.9268C9.46125 8.99152 9.51605 9.06994 9.55307 9.15706C9.59009 9.24417 9.60851 9.33806 9.60715 9.4327C9.60848 9.52747 9.59026 9.62148 9.55363 9.70889C9.51699 9.7963 9.46274 9.87521 9.39424 9.94071ZM10.8385 5.80363C10.778 5.97747 10.6937 6.14208 10.5881 6.29279C10.5213 6.39041 10.3613 6.55486 10.1081 6.78614C9.86595 7.00634 9.71428 7.16173 9.65306 7.25231C9.58268 7.36388 9.53055 7.48597 9.49862 7.61396C9.46161 7.76093 9.43851 7.91105 9.42964 8.06235C9.42614 8.11081 9.40446 8.15616 9.36893 8.18931C9.33341 8.22247 9.28667 8.24097 9.23808 8.24112H8.47596C8.42571 8.24107 8.37747 8.22136 8.34158 8.18619C8.30568 8.15102 8.28498 8.1032 8.2839 8.05296C8.27911 7.70294 8.34883 7.35591 8.48844 7.03491C8.62475 6.7297 8.84599 6.4433 9.15216 6.17569C9.44709 5.91647 9.6252 5.73809 9.68646 5.64054C9.74921 5.53738 9.78108 5.4184 9.77829 5.2977C9.77829 5.11936 9.70385 4.96815 9.55498 4.84407C9.40605 4.72009 9.20638 4.65807 8.95595 4.65803C8.69989 4.65803 8.4898 4.73359 8.32567 4.88471C8.24593 4.95695 8.18258 5.04542 8.13987 5.14417C8.10122 5.23914 8.03544 5.32062 7.95075 5.37841C7.86605 5.43621 7.7662 5.46776 7.66368 5.46912H7.63063C7.53964 5.46907 7.45009 5.44637 7.37007 5.40306C7.29005 5.35974 7.22207 5.29719 7.17228 5.22103C7.12248 5.14487 7.09244 5.05751 7.08486 4.96684C7.07727 4.87616 7.09239 4.78503 7.12884 4.70166C7.22374 4.48842 7.36111 4.29677 7.53258 4.13842C7.90545 3.78796 8.39661 3.61274 9.00608 3.61276C9.39843 3.61276 9.73235 3.68523 10.0079 3.83017C10.2822 3.97399 10.5112 4.19111 10.6695 4.45736C10.8308 4.71574 10.9168 5.01401 10.9178 5.31861C10.9178 5.48351 10.891 5.6473 10.8385 5.80363ZM6.35825 13.3532H11.6417V14.4217H6.35825V13.3532ZM7.63766 17.4023H10.3623C10.665 17.402 10.9578 17.2945 11.1887 17.0989C11.4197 16.9033 11.574 16.6323 11.6243 16.3339H6.37566C6.42596 16.6323 6.58028 16.9033 6.81127 17.0989C7.04227 17.2945 7.33503 17.402 7.6377 17.4023H7.63766ZM6.35825 14.8435H11.6417V15.912H6.35825V14.8435Z" fill="#2885C9"/>
</svg>
